<svg preserveAspectRatio="xMidYMid meet" width="36" height="52" overflow="visible" style="display: block;" viewBox="0 0 36 52" fill="none" xmlns="http://www.w3.org/2000/svg">
<g id="Layer_1" clip-path="url(#clip0_0_15)">
<path id="Vector" d="M19.1664 52H16.8362V40.1033C16.8362 36.1369 15.4127 32.9081 12.5629 30.4093C9.71311 27.9131 5.86922 26.6637 1.03652 26.6637H0V24.6818H1.03652C5.86922 24.6818 9.71311 23.4687 12.5629 21.0452C15.4127 18.6217 16.8362 15.4267 16.8362 11.4603V0H19.1664V11.4577C19.1664 15.4241 20.59 18.6191 23.4398 21.0426C26.2895 23.4661 30.1281 24.6792 34.9661 24.6792H36.0026V26.6611H34.9661C30.1308 26.6611 26.2895 27.9105 23.4398 30.4067C20.59 32.9055 19.1664 36.1343 19.1664 40.1007V51.9974V52Z" fill="var(--fill-0, #C0B396)"/>
</g>
<defs>
<clipPath id="clip0_0_15">
<rect width="36" height="52" fill="white"/>
</clipPath>
</defs>
</svg>
