<svg preserveAspectRatio="xMidYMid meet" width="54" height="78" overflow="visible" style="display: block;" viewBox="0 0 54 78" fill="none" xmlns="http://www.w3.org/2000/svg">
<g id="Layer_1" clip-path="url(#clip0_0_17)">
<path id="Vector" d="M28.7496 78H25.2543V60.155C25.2543 54.2053 23.119 49.3622 18.8443 45.614C14.5697 41.8696 8.80383 39.9955 1.55479 39.9955H0V37.0226H1.55479C8.80383 37.0226 14.5697 35.2031 18.8443 31.5678C23.119 27.9326 25.2543 23.1401 25.2543 17.1905V0H28.7496V17.1866C28.7496 23.1362 30.885 27.9287 35.1596 31.5639C39.4343 35.1992 45.1922 37.0187 52.4492 37.0187H54.004V39.9916H52.4492C45.1962 39.9916 39.4343 41.8657 35.1596 45.6101C30.885 49.3583 28.7496 54.2014 28.7496 60.1511V77.9961V78Z" fill="var(--fill-0, #C0B396)"/>
</g>
<defs>
<clipPath id="clip0_0_17">
<rect width="54" height="78" fill="white"/>
</clipPath>
</defs>
</svg>
