<svg preserveAspectRatio="xMidYMid meet" width="38" height="33.0892" overflow="visible" style="display: block;" viewBox="0 0 38 33.0892" fill="none" xmlns="http://www.w3.org/2000/svg">
<path id="vector" d="M38 2.43303V30.6562C38 31.3015 37.7056 31.9203 37.1816 32.3766C36.6576 32.8329 35.9469 33.0892 35.2059 33.0892H2.79412C2.05307 33.0892 1.34238 32.8329 0.818378 32.3766C0.294379 31.9203 0 31.3015 0 30.6562L0 2.43303C0 1.78775 0.294379 1.1689 0.818378 0.712619C1.34238 0.256337 2.05307 0 2.79412 0L35.2059 0C35.9469 0 36.6576 0.256337 37.1816 0.712619C37.7056 1.1689 38 1.78775 38 2.43303V2.43303ZM11.1765 12.6518H5.58824V28.2232H11.1765V12.6518ZM11.6794 7.2991C11.6824 6.93102 11.602 6.56604 11.443 6.225C11.2839 5.88396 11.0493 5.57354 10.7525 5.31146C10.4556 5.04938 10.1024 4.84078 9.71304 4.69756C9.32364 4.55435 8.90565 4.47933 8.48294 4.47678H8.38235C7.52274 4.47678 6.69833 4.77413 6.0905 5.30342C5.48266 5.8327 5.14118 6.55057 5.14118 7.2991C5.14118 8.04762 5.48266 8.76549 6.0905 9.29477C6.69833 9.82406 7.52274 10.1214 8.38235 10.1214V10.1214C8.80509 10.1305 9.22573 10.0669 9.62024 9.93435C10.0148 9.8018 10.3754 9.60286 10.6816 9.3489C10.9878 9.09493 11.2335 8.79092 11.4047 8.45424C11.5759 8.11755 11.6693 7.75479 11.6794 7.38668V7.2991ZM32.4118 18.7635C32.4118 14.0824 28.9918 12.2625 25.5941 12.2625C24.4817 12.214 23.374 12.4203 22.3817 12.8609C21.3894 13.3014 20.5471 13.9609 19.9388 14.7734H19.7824V12.6518H14.5294V28.2232H20.1176V19.9411C20.0369 19.0929 20.3437 18.2512 20.9715 17.5988C21.5993 16.9465 22.4974 16.5362 23.4706 16.457H23.6829C25.46 16.457 26.7788 17.4302 26.7788 19.8827V28.2232H32.3671L32.4118 18.7635Z" fill="var(--fill-0, #1F1F21)"/>
</svg>
