<svg preserveAspectRatio="xMidYMid meet" width="26" height="39" overflow="visible" style="display: block;" viewBox="0 0 26 39" fill="none" xmlns="http://www.w3.org/2000/svg">
<g id="Layer_1" clip-path="url(#clip0_0_32)">
<path id="Vector" d="M20.9929 0V27.7389C20.9929 33.7808 17.5608 37.7365 11.4288 37.7365C8.55474 37.7365 6.07201 36.6252 4.30073 35.1605C3.86159 34.7629 3.68127 34.6515 3.23845 34.1413C3.23355 34.1341 3.22864 34.1269 3.22373 34.121C3.10966 33.9581 2.98208 33.782 2.84715 33.594C1.06606 30.9749 0.0185071 27.5665 1.10041 24.6323C1.39112 23.8443 1.93576 23.012 2.77846 22.8946C4.6491 23.1629 6.04257 24.8862 6.0487 26.697L6.06219 30.8048L6.72213 30.8072L6.7344 26.7102C6.73562 26.0958 6.91717 25.503 7.18335 24.9617C7.95859 23.382 9.59248 22.7042 11.3748 22.7665L11.365 22.1246C10.5603 22.1593 9.89669 22.0551 9.20486 21.8024C8.30696 21.4503 7.58201 20.824 7.1674 19.9605C6.90735 19.4204 6.7344 18.8419 6.73317 18.2347L6.72336 14.3114L6.06342 14.315L6.04747 18.3509C6.04257 19.7353 5.14466 20.9425 3.90207 21.5174L2.19826 22.3054C1.35923 22.7461 0.820734 23.5725 0.509166 24.4335C-0.155677 26.2731 -0.156903 27.8778 0.435567 29.7485C0.885746 31.1689 1.5555 32.5042 2.41905 33.7126C4.27988 36.6826 7.68627 38.9988 12.5548 38.9988C20.2631 38.9988 26.0013 34.3844 26.0013 26.2V0H20.9942H20.9929Z" fill="var(--fill-0, #C0B396)"/>
</g>
<defs>
<clipPath id="clip0_0_32">
<rect width="26" height="39" fill="white"/>
</clipPath>
</defs>
</svg>
