<svg preserveAspectRatio="xMidYMid meet" width="1013" height="82" overflow="visible" style="display: block;" viewBox="0 0 1013 82" fill="none" xmlns="http://www.w3.org/2000/svg">
<g id="Layer_1" clip-path="url(#clip0_0_5)">
<path id="Vector" d="M42.4928 1.13877V58.6531C42.4928 71.1796 35.5446 79.3788 23.1346 79.3788C17.3168 79.3788 12.2899 77.0764 8.70395 74.0369C7.81368 73.2128 7.44929 72.9809 6.55488 71.925C6.5466 71.9125 6.53417 71.896 6.52589 71.8835C6.29401 71.5481 6.03728 71.1796 5.76399 70.7903C2.15735 65.3573 0.0372673 58.2928 2.22775 52.2097C2.81574 50.574 3.91719 48.8513 5.6232 48.607C9.41203 49.1619 12.2319 52.7356 12.2443 56.4915L12.2733 65.0095H13.6108L13.6356 56.5205C13.6356 55.245 14.0083 54.0193 14.5466 52.8929C16.116 49.6174 19.4245 48.2136 23.0311 48.342L23.0104 47.0086C21.3789 47.0831 20.0373 46.8637 18.6377 46.3419C16.8199 45.6131 15.3541 44.3128 14.5135 42.5239C13.9876 41.4058 13.6398 40.2049 13.6356 38.9461L13.6149 30.809L12.2775 30.8173L12.2443 39.1862C12.2319 42.056 10.4141 44.5613 7.90064 45.7539L4.45135 47.3896C2.75363 48.3047 1.66046 50.0191 1.03106 51.7997C-0.3147 55.6136 -0.3147 58.9388 0.881989 62.8189C1.79296 65.7632 3.147 68.5335 4.89442 71.0388C8.6584 77.1964 15.557 82 25.4121 82C41.0146 82 52.6295 72.4343 52.6295 55.4645V1.13877H42.4928Z" fill="var(--fill-0, #C0B396)"/>
<path id="Vector_2" d="M155.582 57.2865H115.723L105.358 80.8612H102.17L137.131 1.13877H141.574L176.423 80.8612H165.831L155.582 57.2865ZM154.555 55.009L135.652 11.6196L116.634 55.009H154.555Z" fill="var(--fill-0, #C0B396)"/>
<path id="Vector_3" d="M295.541 80.8612H283.926C281.305 79.0392 279.371 76.6457 278.005 74.2563L265.934 53.0751C264.34 50.4539 261.947 48.0645 258.986 46.698H239.628V80.8654H229.491V1.13877H260.808C277.321 1.13877 289.736 10.8204 289.736 23.8024C289.736 35.6457 279.827 44.6441 265.823 46.3502C271.288 47.9444 275.731 50.7935 278.009 54.7771L288.257 72.2024C290.195 75.7347 293.156 79.151 295.545 80.8571L295.541 80.8612ZM239.624 44.4163H258.87C271.056 44.4163 279.139 36.329 279.139 23.9184C279.139 11.5078 271.052 3.42046 258.87 3.42046H239.624V44.4205V44.4163Z" fill="var(--fill-0, #C0B396)"/>
<path id="Vector_4" d="M412.154 80.8612H400.539C397.918 79.0392 395.984 76.6457 394.618 74.2563L382.547 53.0751C380.953 50.4539 378.56 48.0645 375.599 46.698H356.241V80.8654H346.104V1.13877H377.421C393.935 1.13877 406.349 10.8204 406.349 23.8024C406.349 35.6457 396.44 44.6441 382.431 46.3502C387.897 47.9444 392.34 50.7935 394.618 54.7771L404.866 72.2024C406.804 75.7347 409.765 79.151 412.154 80.8571V80.8612ZM356.241 44.4163H375.487C387.674 44.4163 395.757 36.329 395.757 23.9184C395.757 11.5078 387.67 3.42046 375.487 3.42046H356.241V44.4205V44.4163Z" fill="var(--fill-0, #C0B396)"/>
<path id="Vector_5" d="M509.98 57.2865H470.121L459.757 80.8612H456.568L491.533 1.13877H495.976L530.825 80.8612H520.233L509.984 57.2865H509.98ZM508.953 55.009L490.051 11.6196L471.032 55.009H508.953Z" fill="var(--fill-0, #C0B396)"/>
<path id="Vector_6" d="M649.484 1.13877V80.8612H645.612L586.622 9.33795V80.8612H583.889V1.13877H592.432L646.755 67.1918V1.13877H649.488H649.484Z" fill="var(--fill-0, #C0B396)"/>
<path id="Vector_7" d="M704.718 41C704.718 17.6531 722.482 0 746.171 0C769.861 0 787.737 17.6531 787.737 41C787.737 64.3469 769.973 82 746.171 82C722.37 82 704.718 64.3469 704.718 41ZM777.149 41C777.149 17.6531 764.85 2.27755 746.171 2.27755C727.492 2.27755 715.31 17.6531 715.31 41C715.31 64.3469 727.608 79.7225 746.171 79.7225C764.735 79.7225 777.149 64.3469 777.149 41Z" fill="var(--fill-0, #C0B396)"/>
<path id="Vector_8" d="M905.265 1.13877L870.304 80.8612H865.861L831.016 1.13877H841.608L871.902 70.4963L902.076 1.13877H905.265Z" fill="var(--fill-0, #C0B396)"/>
<path id="Vector_9" d="M992.159 57.2865H952.3L941.936 80.8612H938.747L973.712 1.13877H978.155L1013 80.8612H1002.41L992.164 57.2865H992.159ZM991.137 55.009L972.234 11.6196L953.215 55.009H991.137Z" fill="var(--fill-0, #C0B396)"/>
</g>
<defs>
<clipPath id="clip0_0_5">
<rect width="1013" height="82" fill="white"/>
</clipPath>
</defs>
</svg>
