<svg preserveAspectRatio="xMidYMid meet" width="370.61" height="30" overflow="visible" style="display: block;" viewBox="0 0 370.61 30" fill="none" xmlns="http://www.w3.org/2000/svg">
<g id="Layer_1" clip-path="url(#clip0_0_22)">
<path id="Vector" d="M15.5462 0.416625V21.4584C15.5462 26.0413 13.0041 29.041 8.46389 29.041C6.33542 29.041 4.4963 28.1987 3.18437 27.0867C2.85866 26.7852 2.72535 26.7003 2.39813 26.314C2.3951 26.3095 2.39055 26.3034 2.38752 26.2989C2.30269 26.1761 2.20876 26.0413 2.10878 25.8989C0.789276 23.9112 0.0136344 21.3266 0.81503 19.1011C1.03015 18.5027 1.43312 17.8724 2.05727 17.7831C3.44342 17.9861 4.47509 19.2935 4.47963 20.6676L4.49024 23.784H4.97956L4.98865 20.6782C4.98865 20.2116 5.12499 19.7632 5.32193 19.3511C5.89609 18.1527 7.10651 17.6391 8.42601 17.6861L8.41844 17.1983C7.82156 17.2255 7.33072 17.1452 6.81868 16.9543C6.15363 16.6877 5.61734 16.212 5.30981 15.5575C5.11742 15.1485 4.99016 14.7091 4.98865 14.2486L4.98107 11.2716L4.49175 11.2746L4.47963 14.3364C4.47509 15.3863 3.81004 16.3029 2.89048 16.7392L1.62854 17.3376C1.00743 17.6725 0.607485 18.2997 0.377216 18.9511C-0.115134 20.3464 -0.115134 21.563 0.322679 22.9825C0.655963 24.0597 1.15134 25.0732 1.79064 25.9898C3.16771 28.2426 5.69157 30 9.29709 30C15.0053 30 19.2547 26.5004 19.2547 20.2919V0.416625H15.5462Z" fill="var(--fill-0, #1F1F21)"/>
<path id="Vector_2" d="M56.9203 20.9585H42.3376L38.5458 29.5834H37.3793L50.1698 0.416625H51.7953L64.5449 29.5834H60.6697L56.9203 20.9585ZM56.5446 20.1252L49.6289 4.25109L42.6709 20.1252H56.5446Z" fill="var(--fill-0, #1F1F21)"/>
<path id="Vector_3" d="M108.125 29.5834H103.875C102.916 28.9168 102.209 28.0411 101.709 27.167L97.293 19.4177C96.7098 18.4587 95.8342 17.5846 94.751 17.0846H87.6687V29.5849H83.9602V0.416625H95.4176C101.459 0.416625 106.001 3.95869 106.001 8.70821C106.001 13.0411 102.376 16.3332 97.2521 16.9574C99.2518 17.5407 100.877 18.583 101.711 20.0404L105.46 26.4155C106.169 27.7078 107.252 28.9577 108.126 29.5819L108.125 29.5834ZM87.6672 16.2499H94.7086C99.167 16.2499 102.124 13.2911 102.124 8.75063C102.124 4.21018 99.1655 1.25139 94.7086 1.25139H87.6672V16.2514V16.2499Z" fill="var(--fill-0, #1F1F21)"/>
<path id="Vector_4" d="M150.788 29.5834H146.539C145.58 28.9168 144.872 28.0411 144.372 27.167L139.956 19.4177C139.373 18.4587 138.497 17.5846 137.414 17.0846H130.332V29.5849H126.623V0.416625H138.081C144.122 0.416625 148.664 3.95869 148.664 8.70821C148.664 13.0411 145.039 16.3332 139.914 16.9574C141.914 17.5407 143.539 18.583 144.372 20.0404L148.122 26.4155C148.831 27.7078 149.914 28.9577 150.788 29.5819V29.5834ZM130.332 16.2499H137.373C141.832 16.2499 144.789 13.2911 144.789 8.75063C144.789 4.21018 141.83 1.25139 137.373 1.25139H130.332V16.2514V16.2499Z" fill="var(--fill-0, #1F1F21)"/>
<path id="Vector_5" d="M186.578 20.9585H171.996L168.204 29.5834H167.037L179.829 0.416625H181.455L194.204 29.5834H190.329L186.58 20.9585H186.578ZM186.202 20.1252L179.287 4.25109L172.329 20.1252H186.202Z" fill="var(--fill-0, #1F1F21)"/>
<path id="Vector_6" d="M237.616 0.416625V29.5834H236.2L214.618 3.41632V29.5834H213.618V0.416625H216.743L236.618 24.5824V0.416625H237.618H237.616Z" fill="var(--fill-0, #1F1F21)"/>
<path id="Vector_7" d="M257.824 15C257.824 6.45844 264.323 0 272.989 0C281.656 0 288.196 6.45844 288.196 15C288.196 23.5416 281.697 30 272.989 30C264.282 30 257.824 23.5416 257.824 15ZM284.323 15C284.323 6.45844 279.823 0.833249 272.989 0.833249C266.156 0.833249 261.699 6.45844 261.699 15C261.699 23.5416 266.198 29.1668 272.989 29.1668C279.781 29.1668 284.323 23.5416 284.323 15Z" fill="var(--fill-0, #1F1F21)"/>
<path id="Vector_8" d="M331.194 0.416625L318.404 29.5834H316.778L304.03 0.416625H307.905L318.989 25.7913L330.028 0.416625H331.194Z" fill="var(--fill-0, #1F1F21)"/>
<path id="Vector_9" d="M362.985 20.9585H348.402L344.611 29.5834H343.444L356.236 0.416625H357.862L370.611 29.5834H366.736L362.987 20.9585H362.985ZM362.611 20.1252L355.695 4.25109L348.737 20.1252H362.611Z" fill="var(--fill-0, #1F1F21)"/>
</g>
<defs>
<clipPath id="clip0_0_22">
<rect width="370.61" height="30" fill="white"/>
</clipPath>
</defs>
</svg>
